<svg xmlns="http://www.w3.org/2000/svg" id="Ebene_1" viewBox="0 0 771 141.7"><style>.st0{fill:#fff}</style><path class="st0" d="M705.2 138.7c-19 0-35.1-6.7-47.6-19.8-12.6-13.2-19-29-19-47.1 0-12.1 3-23.4 8.8-33.6 5.9-10.2 14-18.3 24.3-24.3 10.3-5.9 21.5-9 33.3-9 17.9 0 33.6 6.6 46.5 19.6s19.5 29 19.5 47.7c0 18.5-6.5 34.4-19.2 47.2s-28.4 19.3-46.6 19.3zm-.4-113.6c-12.7 0-23.6 4.5-32.2 13.3-8.7 8.8-13.1 20.2-13.1 33.8 0 15.2 5.5 27.3 16.5 36.2 8.5 6.9 18.3 10.4 29.3 10.4 12.4 0 23.1-4.5 31.9-13.5 8.7-9 13.1-20.1 13.1-33.2 0-13-4.4-24.2-13.2-33.3-8.9-9.1-19.7-13.7-32.3-13.7zm-9.7 13h19.3v67.5h-19.3V38.1zm-58.6 77.8c3.5 0 6.4 1.2 8.9 3.6s3.7 5.4 3.7 8.8c0 3.5-1.2 6.4-3.7 8.9-2.4 2.4-5.4 3.7-8.9 3.7s-6.4-1.2-8.9-3.7c-2.4-2.4-3.7-5.4-3.7-8.9s1.2-6.4 3.7-8.8c2.4-2.4 5.4-3.6 8.9-3.6zM68.2 34.4H90v86.9H68.2v-9.2c-4.3 4-8.5 7-12.8 8.7-4.3 1.8-8.9 2.7-13.9 2.7-11.2 0-20.9-4.4-29.1-13.1C4.1 101.8.1 90.9.1 78c0-13.4 4-24.4 11.9-33s17.5-12.9 28.9-12.9c5.2 0 10.1 1 14.7 3S64.4 40 68.3 44v-9.6h-.1zm-23 17.9c-6.7 0-12.3 2.4-16.8 7.1s-6.7 10.9-6.7 18.3c0 7.5 2.3 13.7 6.8 18.5s10.1 7.3 16.7 7.3c6.8 0 12.5-2.4 17-7.1s6.8-11 6.8-18.7c0-7.6-2.3-13.7-6.8-18.4-4.4-4.7-10.1-7-17-7zM120.5.9V44c3.9-3.9 8.2-6.9 12.8-8.9s9.5-3 14.7-3c11.3 0 21 4.3 28.9 12.9s11.9 19.6 11.9 33c0 12.9-4.1 23.8-12.3 32.5s-17.9 13.1-29.1 13.1c-5 0-9.7-.9-14-2.7-4.3-1.8-8.6-4.7-12.9-8.7v9.2H98.9V.9h21.6zm22.9 51.4c-6.9 0-12.6 2.3-17.1 7-4.5 4.7-6.8 10.8-6.8 18.4 0 7.7 2.3 14 6.8 18.7 4.5 4.8 10.2 7.1 17.1 7.1 6.7 0 12.3-2.4 16.8-7.3 4.6-4.8 6.8-11 6.8-18.5 0-7.4-2.2-13.6-6.7-18.3s-10-7.1-16.9-7.1zm215.2 31.8h-70c1 6.2 3.7 11.1 8.1 14.7s10 5.5 16.8 5.5c8.1 0 15.1-2.8 21-8.5l18.4 8.6c-4.6 6.5-10.1 11.3-16.4 14.4-6.4 3.1-14 4.7-22.8 4.7-13.6 0-24.7-4.3-33.3-12.9-8.6-8.6-12.9-19.4-12.9-32.3 0-13.3 4.3-24.3 12.8-33s19.3-13.1 32.1-13.1c13.7 0 24.8 4.4 33.4 13.1 8.6 8.8 12.9 20.3 12.9 34.7l-.1 4.1zM336.8 67c-1.4-4.8-4.3-8.8-8.5-11.8s-9.2-4.6-14.8-4.6c-6.1 0-11.4 1.7-16 5.1-2.9 2.1-5.5 5.9-8 11.3h47.3zm26.4-32.6H385v8.9c4.9-4.2 9.4-7.1 13.4-8.7 4-1.6 8.1-2.4 12.3-2.4 8.6 0 15.9 3 21.9 9 5 5.1 7.6 12.7 7.6 22.7v57.4h-21.6v-38c0-10.4-.5-17.2-1.4-20.7-.9-3.4-2.5-6-4.9-7.8-2.3-1.8-5.2-2.7-8.6-2.7-4.4 0-8.2 1.5-11.3 4.4-3.2 3-5.4 7-6.6 12.2-.6 2.7-1 8.6-1 17.6v34.8H363V34.4h.2zm170 17.6l-18.1 10c-3.4-3.6-6.8-6-10.1-7.4-3.3-1.4-7.2-2.1-11.7-2.1-8.2 0-14.7 2.4-19.8 7.3-5 4.9-7.6 11.1-7.6 18.7 0 7.4 2.4 13.4 7.3 18.1 4.8 4.7 11.2 7 19.1 7 9.8 0 17.3-3.3 22.8-10l17.2 11.8c-9.3 12.1-22.5 18.2-39.4 18.2-15.3 0-27.2-4.5-35.9-13.6-8.6-9-13-19.6-13-31.8 0-8.4 2.1-16.2 6.3-23.2 4.2-7.1 10.1-12.6 17.6-16.7 7.5-4 16-6.1 25.3-6.1 8.6 0 16.4 1.7 23.2 5.1 6.9 3.5 12.5 8.3 16.8 14.7zm93.6 32.1h-70c1 6.2 3.7 11.1 8.1 14.7 4.4 3.6 10 5.5 16.8 5.5 8.1 0 15.1-2.8 21-8.5l18.4 8.6c-4.6 6.5-10.1 11.3-16.4 14.4-6.4 3.1-14 4.7-22.8 4.7-13.6 0-24.7-4.3-33.3-12.9s-12.9-19.4-12.9-32.3c0-13.3 4.3-24.3 12.8-33s19.3-13.1 32.1-13.1c13.7 0 24.8 4.4 33.4 13.1 8.6 8.8 12.9 20.3 12.9 34.7l-.1 4.1zM605 67c-1.4-4.8-4.3-8.8-8.5-11.8s-9.2-4.6-14.8-4.6c-6.1 0-11.4 1.7-16 5.1-2.9 2.1-5.5 5.9-8 11.3H605zm-386.1 55.7c-11-2-21.3-6.2-29.4-12.7l-2.3-1.7 9.8-19.7s16.3 13.1 31.4 14c3.7.2 6.4-.4 9-1.6 3.3-1.2 4.8-3.1 4.8-5.9 0-2.3-1.5-5.3-14.5-7.2-11.8-2.1-19.3-4.3-22.8-6-4.6-2.3-8.3-5.5-11-9.4s-3.9-8.2-3.9-13.1c0-5.1 1.8-10 5.3-14.4 2.9-3.7 7-6.6 13.2-9.4 5-2.1 10.8-3.1 17.6-3.1 2.4 0 4.8.2 7 .4 9.7 1.4 19.3 5.1 27.2 10.5l3.3 2.3-15.6 16-3.1-2.1c-7.7-5.5-14.3-6.4-18.2-6.4-2.9 0-5.5.4-7.9 1.4-2.9 1.4-4.4 3.5-4.4 4.9 0 2.7 2.2 4.7 13.6 7 14.9 3.1 19.7 4.7 22.8 5.9 6.1 3.1 8.8 5.7 11 8.2 3.3 4.1 4.8 9.2 4.8 14.6 0 5.7-1.8 10.7-5 14.8s-7.7 7.6-14 10.3c-5 2.1-11.6 3.3-18.2 3.3-3.2.1-6.5-.3-10.5-.9z"/></svg>